<svg width="81" height="70" viewBox="0 0 81 70" fill="none" xmlns="http://www.w3.org/2000/svg">
<g clip-path="url(#clip0_37_319)">
<path fill-rule="evenodd" clip-rule="evenodd" d="M49.3482 15.4734L71.2637 53.4478H62.6948L49.7181 30.9775L45.6803 37.9436H36.3716L49.3482 15.4734Z" fill="#3C3C3B"/>
<path fill-rule="evenodd" clip-rule="evenodd" d="M40.4094 0L44.6939 7.42845C37.2654 20.2818 29.837 33.166 22.4085 46.0194H49.1016L53.3861 53.4478H9.55518L40.4094 0Z" fill="#C41622"/>
<path fill-rule="evenodd" clip-rule="evenodd" d="M40.4094 0L9.55518 53.4478L22.4085 46.0194L40.4094 0Z" fill="#E30613"/>
<path fill-rule="evenodd" clip-rule="evenodd" d="M9.55518 53.4478L22.4085 46.0194L53.3861 53.4478H9.55518Z" fill="#A51916"/>
<path fill-rule="evenodd" clip-rule="evenodd" d="M71.2636 53.4478H62.6947L49.3481 15.4734L71.2636 53.4478Z" fill="black"/>
<path fill-rule="evenodd" clip-rule="evenodd" d="M36.3716 37.9436H45.6803L49.3482 15.4734L36.3716 37.9436Z" fill="#575756"/>
<path fill-rule="evenodd" clip-rule="evenodd" d="M9.55518 53.4478L22.4085 46.0194L35.416 12.7609L21.7921 45.4954L9.55518 53.4478Z" fill="#EA5358"/>
<path fill-rule="evenodd" clip-rule="evenodd" d="M49.5947 18.1858L45.6802 37.9436L49.3482 15.4734L59.7048 44.9097L49.5947 18.1858Z" fill="#706F6F"/>
</g>
<g clip-path="url(#clip1_37_319)">
<path fill-rule="evenodd" clip-rule="evenodd" d="M4.8701 69.476V68.2122C3.45222 68.1814 2.28093 67.7807 1.38705 66.9793C0.462351 66.2087 0 65.1607 0 63.8661C0 62.5099 0.431528 61.4619 1.29458 60.6913C2.15764 59.9516 3.32893 59.5509 4.8701 59.4892V58.5645H7.3668V59.4892C8.87715 59.5509 10.0793 59.9516 10.9423 60.6913C11.8054 61.4311 12.2369 62.5099 12.2369 63.8661C12.2369 65.1299 11.7745 66.1779 10.8807 66.9793C9.98679 67.7807 8.8155 68.1814 7.3668 68.2122V69.476H4.8701ZM4.8701 66.0854V61.616C4.06869 61.6777 3.51387 61.9243 3.14399 62.325C2.77411 62.7257 2.58917 63.2497 2.58917 63.897C2.55834 65.1916 3.32893 65.9313 4.8701 66.0854ZM7.3668 66.0854C8.90797 65.9313 9.67856 65.1916 9.67856 63.8661C9.67856 63.2189 9.49362 62.6949 9.12373 62.2941C8.75385 61.8934 8.16821 61.6777 7.39762 61.5852V66.0854H7.3668Z" fill="white"/>
<path fill-rule="evenodd" clip-rule="evenodd" d="M69.5068 70V67.0718H70.4007C71.3254 65.9005 71.8186 64.0511 71.8186 61.4927V58.8419H79.6477V67.0718H80.7882V70H78.5997V69.1986H71.6953V70H69.5068ZM73.1132 67.0718H77.151V60.9687H74.2228V61.801C74.2228 64.1435 73.8529 65.9005 73.1132 67.0718Z" fill="white"/>
<path fill-rule="evenodd" clip-rule="evenodd" d="M24.7819 64.0203C24.7819 60.9996 22.316 58.5645 19.2953 58.5645C16.2746 58.5645 13.8396 60.9996 13.8396 64.0203C13.8396 67.041 16.2746 69.476 19.2953 69.476C22.316 69.476 24.7819 67.041 24.7819 64.0203ZM22.4393 64.0203C22.4393 65.7464 21.0215 67.1643 19.2953 67.1643C17.5692 67.1643 16.1514 65.7464 16.1514 64.0203C16.1514 62.2941 17.5692 60.8763 19.2953 60.8763C21.0523 60.8763 22.4393 62.2941 22.4393 64.0203Z" fill="white"/>
<path fill-rule="evenodd" clip-rule="evenodd" d="M26.7856 58.8419H29.2823H32.3339C34.5223 58.8419 36.3101 60.6297 36.3101 62.8181C36.3101 65.0066 34.5223 66.7944 32.3339 66.7944H29.2823V69.1678H26.7856C26.7856 65.7464 26.7856 62.2941 26.7856 58.8419ZM29.2823 64.7908H31.964C33.0428 64.7908 33.9059 63.9278 33.9059 62.849C33.9059 61.7701 33.012 60.9071 31.964 60.9071H29.2823V64.7908Z" fill="white"/>
<path fill-rule="evenodd" clip-rule="evenodd" d="M60.0132 58.8419H62.5099H65.5614C67.7499 58.8419 69.5376 60.6297 69.5376 62.8181C69.5376 65.0066 67.7499 66.7944 65.5614 66.7944H62.5099V69.1678H60.0132C60.0132 65.7464 60.0132 62.2941 60.0132 58.8419ZM62.5099 64.7908H65.1915C66.2703 64.7908 67.1334 63.9278 67.1334 62.849C67.1334 61.7701 66.2395 60.9071 65.1915 60.9071H62.5099V64.7908Z" fill="white"/>
<path fill-rule="evenodd" clip-rule="evenodd" d="M38.0669 69.1986C38.0669 65.7464 38.0669 62.2941 38.0669 58.8419H44.1391C45.7728 58.8419 47.129 60.1981 47.129 61.8318C47.129 62.6024 46.8208 63.3113 46.3276 63.8661C46.8208 64.421 47.129 65.1915 47.129 66.0238C47.129 67.7807 45.7728 69.1986 44.1391 69.1986H38.0669ZM40.4711 60.8454V62.849H43.8617C44.4165 62.849 44.8481 62.3866 44.8481 61.8626C44.8481 61.3078 44.3857 60.8763 43.8617 60.8763H40.4711V60.8454ZM40.4711 64.945V67.0718H43.8617C44.4165 67.0718 44.8481 66.5786 44.8481 65.993C44.8481 65.4073 44.3857 64.9141 43.8617 64.9141H40.4711V64.945Z" fill="white"/>
<path fill-rule="evenodd" clip-rule="evenodd" d="M47.7146 69.1986L52.0607 58.8419H54.4958L58.811 69.1986H56.0369L55.6054 68.0273H50.8586L50.4271 69.1986H47.7146ZM54.8656 66.0238L53.232 61.616L51.5983 66.0238H54.8656Z" fill="white"/>
</g>
<defs>
<clipPath id="clip0_37_319">
<rect width="61.7085" height="53.4478" fill="white" transform="translate(9.55518)"/>
</clipPath>
<clipPath id="clip1_37_319">
<rect width="80.7882" height="11.4355" fill="white" transform="translate(0 58.5645)"/>
</clipPath>
</defs>
</svg>
