<svg width="64" height="64" viewBox="0 0 64 64" fill="none" xmlns="http://www.w3.org/2000/svg">
<g clip-path="url(#clip0_37_882)">
<path d="M60.5942 43.9371L58.4608 41.8037C56.8213 40.1642 54.3232 40.1675 52.686 41.8037L38.7104 55.7792C38.5109 55.9787 38.3979 56.2507 38.3979 56.5333V62.9333C38.3979 63.5221 38.8758 64 39.4646 64H45.8646C46.1472 64 46.4192 63.887 46.6187 63.6875L60.5942 49.712C62.2934 48.0127 62.2934 45.6373 60.5942 43.9371ZM51.3067 46.1995L52.9985 47.8912L43.7312 57.1585L42.0395 55.4667L51.3067 46.1995ZM40.5313 61.8666V56.9748L45.4231 61.8666H40.5313ZM46.9313 60.3583L45.2396 58.6666L54.5068 49.3993L56.1986 51.0911L46.9313 60.3583ZM59.0859 48.2037L57.7067 49.583L52.8149 44.6912L54.1942 43.312C55.0368 42.4703 56.1057 42.4661 56.9526 43.312L59.0859 45.4453C59.9488 46.3093 59.9488 47.3407 59.0859 48.2037Z" fill="#E31E25"/>
<path d="M46.9314 39.4666C46.9314 38.8779 46.4536 38.4 45.8648 38.4H39.4648C38.8761 38.4 38.3982 38.8779 38.3982 39.4666C38.3982 40.0554 38.8761 40.5333 39.4648 40.5333H45.8648C46.4536 40.5334 46.9314 40.0555 46.9314 39.4666Z" fill="#BBBBBB"/>
<path d="M42.6645 11.7334V6.4C42.6645 5.81125 42.1866 5.33337 41.5979 5.33337C41.0091 5.33337 40.5312 5.81125 40.5312 6.4V11.7334C40.5312 14.6741 42.9237 17.0667 45.8646 17.0667H55.4646V37.3334C55.4646 37.9221 55.9425 38.4 56.5313 38.4C57.12 38.4 57.5979 37.9221 57.5979 37.3334V16C57.5979 15.4112 57.12 14.9334 56.5313 14.9334H45.8646C44.1003 14.9334 42.6645 13.4976 42.6645 11.7334Z" fill="#BBBBBB"/>
<path d="M45.8646 25.6H37.3313C36.7425 25.6 36.2646 26.0779 36.2646 26.6666C36.2646 27.2554 36.7425 27.7332 37.3313 27.7332H45.8646C46.4534 27.7332 46.9313 27.2554 46.9313 26.6666C46.9314 26.0779 46.4535 25.6 45.8646 25.6Z" fill="#BBBBBB"/>
<path d="M34.1314 26.6666C34.1314 26.0779 33.6535 25.6 33.0648 25.6H26.6648C26.076 25.6 25.5981 26.0779 25.5981 26.6666C25.5981 27.2554 26.076 27.7332 26.6648 27.7332H33.0648C33.6535 27.7334 34.1314 27.2555 34.1314 26.6666Z" fill="#BBBBBB"/>
<path d="M26.6645 32C26.0758 32 25.5979 32.4779 25.5979 33.0666C25.5979 33.6554 26.0758 34.1333 26.6645 34.1333H28.7979C29.3867 34.1333 29.8645 33.6554 29.8645 33.0666C29.8645 32.4779 29.3867 32 28.7979 32H26.6645Z" fill="#BBBBBB"/>
<path d="M26.6645 21.3333H37.3312C37.9199 21.3333 38.3978 20.8555 38.3978 20.2667C38.3978 19.6779 37.9199 19.2001 37.3312 19.2001H26.6645C26.0758 19.2001 25.5979 19.6779 25.5979 20.2667C25.5979 20.8555 26.0758 21.3333 26.6645 21.3333Z" fill="#BBBBBB"/>
<path d="M33.0647 34.1334H43.7313C44.32 34.1334 44.7979 33.6555 44.7979 33.0667C44.7979 32.478 44.32 32.0001 43.7313 32.0001H33.0647C32.4759 32.0001 31.998 32.478 31.998 33.0667C31.998 33.6555 32.4759 34.1334 33.0647 34.1334Z" fill="#BBBBBB"/>
<path d="M39.4646 44.7999C38.8758 44.7999 38.3979 45.2778 38.3979 45.8666C38.3979 46.4553 38.8758 46.9332 39.4646 46.9332H41.5979C42.1867 46.9332 42.6646 46.4553 42.6646 45.8666C42.6646 45.2778 42.1867 44.7999 41.5979 44.7999H39.4646Z" fill="#BBBBBB"/>
<path d="M35.1979 38.4H26.6645C26.0758 38.4 25.5979 38.8779 25.5979 39.4666C25.5979 40.0554 26.0758 40.5333 26.6645 40.5333H35.1979C35.7867 40.5333 36.2645 40.0554 36.2645 39.4666C36.2645 38.8779 35.7867 38.4 35.1979 38.4Z" fill="#BBBBBB"/>
<path d="M35.1979 44.7999H26.6645C26.0758 44.7999 25.5979 45.2778 25.5979 45.8666C25.5979 46.4553 26.0758 46.9332 26.6645 46.9332H35.1979C35.7867 46.9332 36.2645 46.4553 36.2645 45.8666C36.2645 45.2778 35.7867 44.7999 35.1979 44.7999Z" fill="#BBBBBB"/>
<path d="M35.198 61.8666H7.4646C5.70035 61.8666 4.2646 60.4309 4.2646 58.6666V5.33337C4.2646 3.56912 5.70035 2.13337 7.4646 2.13337H41.1564L51.5105 12.4875C51.9275 12.9046 52.6017 12.9046 53.0187 12.4875C53.4359 12.0705 53.4359 11.3962 53.0187 10.9792L42.3521 0.3125C42.1526 0.112 41.8806 0 41.598 0H7.4646C4.52385 0 2.13135 2.3925 2.13135 5.33337V58.6668C2.13135 61.6075 4.52385 64.0001 7.46472 64.0001H35.1981C35.7869 64.0001 36.2647 63.5222 36.2647 62.9335C36.2647 62.3447 35.7867 61.8666 35.198 61.8666Z" fill="#BBBBBB"/>
<path d="M35.1979 51.2001H26.6645C26.0758 51.2001 25.5979 51.6779 25.5979 52.2667C25.5979 52.8554 26.0758 53.3333 26.6645 53.3333H35.1979C35.7867 53.3333 36.2645 52.8554 36.2645 52.2667C36.2645 51.6779 35.7867 51.2001 35.1979 51.2001Z" fill="#BBBBBB"/>
<path d="M21.3313 20.2667C21.3313 19.6779 20.8535 19.2001 20.2647 19.2001H13.8647C13.276 19.2001 12.7981 19.6779 12.7981 20.2667V26.6667C12.7981 27.2554 13.276 27.7333 13.8647 27.7333H20.2647C20.8535 27.7333 21.3313 27.2554 21.3313 26.6667V20.2667ZM19.198 25.6001H14.9313V21.3334H19.198V25.6001Z" fill="#BBBBBB"/>
<path d="M13.8645 53.3334H20.2645C20.8532 53.3334 21.3311 52.8555 21.3311 52.2668V45.8668C21.3311 45.278 20.8532 44.8002 20.2645 44.8002H13.8645C13.2757 44.8002 12.7979 45.278 12.7979 45.8668V52.2668C12.7979 52.8555 13.2757 53.3334 13.8645 53.3334ZM14.9312 46.9334H19.1979V51.2H14.9312V46.9334Z" fill="#BBBBBB"/>
<path d="M15.2438 40.2208C15.4443 40.4213 15.7163 40.5333 15.9979 40.5333C16.0332 40.5333 16.0673 40.5323 16.1035 40.5279C16.4214 40.497 16.7083 40.3242 16.8854 40.0585L21.152 33.6586C21.4784 33.1679 21.3462 32.5054 20.8565 32.1791C20.3648 31.8516 19.7045 31.9849 19.377 32.4746L15.8325 37.7919L14.6187 36.5792C14.2017 36.1621 13.5274 36.1621 13.1104 36.5792C12.6934 36.9963 12.6933 37.6704 13.1104 38.0874L15.2438 40.2208Z" fill="#E31E25"/>
</g>
<defs>
<clipPath id="clip0_37_882">
<rect width="64" height="64" fill="white"/>
</clipPath>
</defs>
</svg>
