<svg width="64" height="64" viewBox="0 0 64 64" fill="none" xmlns="http://www.w3.org/2000/svg">
<g clip-path="url(#clip0_37_902)">
<path d="M32 16.6552L39.5993 10.3226H49.5484V0H24.7742V10.3226H32V16.6552ZM26.8387 8.25806V2.06452H47.4838V8.25806H38.8523L34.0645 12.248V8.25806H26.8387Z" fill="#E31E25"/>
<path d="M28.9033 4.12903H30.9678V6.19354H28.9033V4.12903Z" fill="#E31E25"/>
<path d="M33.0322 4.12903H41.2903V6.19354H33.0322V4.12903Z" fill="#E31E25"/>
<path d="M43.3547 4.12903H45.4193V6.19354H43.3547V4.12903Z" fill="#E31E25"/>
<path d="M52.5469 61.9355L51.7122 53.5791C55.1588 53.0343 57.8064 50.0499 57.8064 46.4516V33.0323H53.6774V31.6059C53.6774 30.2026 52.9062 28.9426 51.6663 28.2964C52.8992 27.1638 53.6774 25.5444 53.6774 23.742V21.6774C53.6774 18.2616 50.8997 15.4839 47.4839 15.4839C44.068 15.4839 41.2903 18.2616 41.2903 21.6774V23.742C41.2903 26.4143 42.9945 28.6895 45.371 29.5565L39.8306 35.0968H34.0418C33.9264 33.376 32.7445 31.876 31.0701 31.3972L26.8387 30.1895V28.3458C28.1023 27.2112 28.9032 25.5711 28.9032 23.742V21.6774C28.9032 18.2616 26.1255 15.4839 22.7097 15.4839C19.2938 15.4839 16.5161 18.2616 16.5161 21.6774V23.742C16.5161 25.5701 17.317 27.2102 18.5806 28.3458V30.1905L14.3493 31.3982C12.5862 31.9007 11.3548 33.5338 11.3548 35.3685V39.2258H7.22581V45.4194H9.29032V61.9355H0V64H64V61.9355H52.5469ZM43.3548 45.4194V40.6855L50.6694 33.371C51.1981 32.8423 51.5126 32.1321 51.5832 31.3911C51.5922 31.4632 51.6129 31.5313 51.6129 31.6059V44.3871C51.6129 46.0943 50.2233 47.4839 48.5161 47.4839H40.2581V45.4194H43.3548ZM40.2581 53.6774H45.5176L46.3432 61.9355H40.2581V53.6774ZM47.5922 53.6774H49.6467L50.4723 61.9355H48.4178L47.5922 53.6774ZM53.6774 44.3871V35.0968H55.7419V46.4516C55.7419 49.2974 53.4264 51.6129 50.5806 51.6129H40.2581V49.5484H48.5161C51.3619 49.5484 53.6774 47.2329 53.6774 44.3871ZM43.3548 23.742V21.6774C43.3548 19.4002 45.2067 17.5484 47.4839 17.5484C49.7611 17.5484 51.6129 19.4002 51.6129 21.6774V23.742C51.6129 26.0192 49.7611 27.871 47.4839 27.871C45.2067 27.871 43.3548 26.0192 43.3548 23.742ZM40.6855 37.1613L47.5726 30.2742C47.7883 30.0585 48.0867 29.9355 48.3911 29.9355C49.0292 29.9355 49.5484 30.4547 49.5484 31.0928C49.5484 31.3972 49.4254 31.6956 49.2097 31.9113L41.8952 39.2258H30.9677C30.3982 39.2258 29.9355 38.7631 29.9355 38.1936C29.9355 37.624 30.3982 37.1613 30.9677 37.1613H40.6855ZM18.5806 21.6774C18.5806 19.4002 20.4325 17.5484 22.7097 17.5484C24.9869 17.5484 26.8387 19.4002 26.8387 21.6774V23.742C26.8387 26.0192 24.9869 27.871 22.7097 27.871C20.4325 27.871 18.5806 26.0192 18.5806 23.742V21.6774ZM22.7097 29.9355C23.4345 29.9355 24.127 29.8034 24.7742 29.5741V30.683C24.5181 31.0781 23.807 32 22.7097 32C21.6124 32 20.9012 31.0781 20.6452 30.683V29.5741C21.2923 29.8034 21.9849 29.9355 22.7097 29.9355ZM13.4194 35.3685C13.4194 34.4506 14.0358 33.6351 14.9163 33.3831L19.1688 32.1684C19.7676 32.9486 20.933 34.0645 22.7097 34.0645C24.4864 34.0645 25.6517 32.9486 26.2505 32.1674L30.503 33.3821C31.2938 33.6084 31.8453 34.2959 31.9556 35.0958H30.9677C29.2606 35.0958 27.871 36.4854 27.871 38.1926C27.871 38.556 27.9451 38.9007 28.061 39.2248H13.4194V35.3685ZM9.29032 41.2903H41.2903V43.3549H9.29032V41.2903ZM11.3548 49.5484H14.4516V47.4839H11.3548V45.4194H38.1935V47.4839H16.5161V49.5484H38.1935V61.9355H35.7349L33.6704 57.8065H15.878L13.8135 61.9355H11.3548V49.5484ZM33.4264 61.9355H16.122L17.1542 59.871H32.3942L33.4264 61.9355Z" fill="#BBBBBB"/>
</g>
<defs>
<clipPath id="clip0_37_902">
<rect width="64" height="64" fill="white"/>
</clipPath>
</defs>
</svg>
