<svg width="64" height="64" viewBox="0 0 64 64" fill="none" xmlns="http://www.w3.org/2000/svg">
<g clip-path="url(#clip0_37_908)">
<path d="M5.05761 39.1675C5.30175 39.4116 5.62157 39.5337 5.94139 39.5337C6.26122 39.5337 6.58104 39.4116 6.82518 39.1675L25.7451 20.2481L37.1991 31.7027C37.4335 31.937 37.7519 32.0689 38.0829 32.0689C38.4145 32.0689 38.7323 31.937 38.9672 31.7027L45.6107 25.0586C46.099 24.5709 46.099 23.7793 45.6107 23.2911C45.1225 22.8028 44.3314 22.8028 43.8432 23.2911L38.0829 29.0508L26.6288 17.5963C26.394 17.3619 26.0761 17.23 25.7451 17.23C25.4135 17.23 25.0956 17.3619 24.8608 17.5963L5.94139 36.5161L3.01757 33.5923L25.7451 10.8653L37.1996 22.3199C37.434 22.5543 37.7519 22.6861 38.0834 22.6861C38.415 22.6861 38.7328 22.5543 38.9672 22.3199L54.0629 7.22372C54.5512 6.73593 54.5512 5.94443 54.0629 5.45615L53.6024 4.99521L60.9818 3.01816L59.0048 10.3975L58.7543 10.1475C58.5199 9.91317 58.202 9.78133 57.8705 9.78133C57.5389 9.78133 57.2211 9.91317 56.9867 10.1475L50.9144 16.2198C50.4262 16.7081 50.4262 17.4996 50.9144 17.9879C51.4027 18.4756 52.1937 18.4756 52.6825 17.9879L57.871 12.7994L58.7679 13.6964C59.0839 14.0118 59.5438 14.1358 59.9755 14.0201C60.4066 13.9044 60.7435 13.5675 60.8592 13.1363L63.9574 1.57383C64.0731 1.14219 63.9496 0.68223 63.6337 0.366313C63.3182 0.0503958 62.8578 -0.0726508 62.4266 0.0425833L50.8641 3.14072C50.433 3.25644 50.0961 3.59336 49.9804 4.025C49.8646 4.45615 49.9882 4.9166 50.3036 5.23203L51.4115 6.33993L38.0834 19.668L26.6288 8.21346C26.1411 7.72567 25.3496 7.72518 24.8613 8.21346L0.36621 32.7085C-0.12207 33.1968 -0.12207 33.9883 0.36621 34.4766L5.05761 39.1675Z" fill="#E31E25"/>
<path d="M62.7499 61.4999H61.4999V23.7085C61.4999 23.0181 60.9403 22.4585 60.2499 22.4585H53.2499C52.5595 22.4585 51.9999 23.0181 51.9999 23.7085V61.4999H49.1249V38.625C49.1249 37.935 48.5653 37.375 47.8749 37.375H40.8749C40.1845 37.375 39.6249 37.935 39.6249 38.625V61.4999H36.7499V45.25C36.7499 44.56 36.1904 44 35.4999 44H28.4999C27.8095 44 27.2499 44.56 27.2499 45.25V61.4999H24.3749V38.625C24.3749 37.935 23.8154 37.375 23.125 37.375H16.125C15.4345 37.375 14.875 37.935 14.875 38.625V61.4999H12V50.0414C12 49.3515 11.4404 48.7914 10.75 48.7914H3.74999C3.05956 48.7914 2.49999 49.3515 2.49999 50.0414V61.4999H1.25C0.559569 61.4999 0 62.06 0 62.7499C0 63.4403 0.559569 63.9999 1.25 63.9999H62.7499C63.4403 63.9999 63.9999 63.4403 63.9999 62.7499C63.9999 62.06 63.4403 61.4999 62.7499 61.4999ZM4.99999 61.4999V51.2914H9.49998V61.4999H4.99999ZM17.375 61.4999V39.875H21.875V61.4999H17.375ZM29.7499 61.4999V46.5H34.2499V61.4999H29.7499ZM42.1249 61.4999V39.875H46.6249V61.4999H42.1249ZM54.4999 61.4999V24.9585H58.9999V61.4999H54.4999Z" fill="#BBBBBB"/>
<path d="M47.3789 19.7549C47.1465 19.9873 47.0127 20.3101 47.0127 20.6387C47.0127 20.9688 47.1465 21.29 47.3789 21.5225C47.6113 21.7563 47.9336 21.8887 48.2627 21.8887C48.5913 21.8887 48.9136 21.7563 49.1465 21.5225C49.3799 21.29 49.5127 20.9678 49.5127 20.6387C49.5127 20.3101 49.3799 19.9888 49.1465 19.7549C48.9136 19.5225 48.5913 19.3887 48.2627 19.3887C47.9336 19.3887 47.6113 19.5225 47.3789 19.7549Z" fill="#222222"/>
</g>
<defs>
<clipPath id="clip0_37_908">
<rect width="64" height="64" fill="white"/>
</clipPath>
</defs>
</svg>
