<svg viewBox="0 0 24 24" fill="none" xmlns="http://www.w3.org/2000/svg">
<path d="M12.486 4.771C8.25605 4.771 6.12305 7.804 6.12305 10.333C6.12305 11.866 6.70405 13.227 7.94605 13.734C8.15105 13.818 8.33305 13.738 8.39205 13.513L8.57405 12.796C8.63505 12.575 8.61105 12.496 8.44705 12.301C8.08805 11.879 7.85905 11.329 7.85905 10.554C7.85905 8.304 9.54205 6.29 12.243 6.29C14.635 6.29 15.949 7.753 15.949 9.702C15.949 12.27 14.812 14.436 13.125 14.436C12.193 14.436 11.496 13.666 11.72 12.721C11.988 11.591 12.506 10.374 12.506 9.561C12.506 8.832 12.114 8.225 11.306 8.225C10.354 8.225 9.58805 9.209 9.58805 10.529C9.58805 11.37 9.87405 11.938 9.87405 11.938L8.72805 16.79C8.38805 18.23 8.67705 19.996 8.70305 20.175C8.71605 20.279 8.85205 20.306 8.91305 20.226C9.00105 20.111 10.136 18.709 10.52 17.311C10.631 16.915 11.147 14.866 11.147 14.866C11.458 15.455 12.36 15.974 13.322 15.974C16.185 15.974 18.126 13.366 18.126 9.871C18.123 7.231 15.886 4.771 12.486 4.771Z"/>
</svg>
