<svg width="64" height="64" viewBox="0 0 64 64" fill="none" xmlns="http://www.w3.org/2000/svg">
<g clip-path="url(#clip0_37_76)">
<path d="M25.8986 32.8662C25.6661 32.6337 25.3436 32.5 25.0149 32.5C24.6861 32.5 24.3636 32.6336 24.1311 32.8662C23.8986 33.0989 23.7649 33.4212 23.7649 33.75C23.7649 34.0788 23.8986 34.4013 24.1311 34.6336C24.3636 34.8661 24.6861 35 25.0149 35C25.3436 35 25.6661 34.8663 25.8986 34.6336C26.1311 34.4013 26.2649 34.0788 26.2649 33.75C26.2649 33.4212 26.1311 33.0987 25.8986 32.8662Z" fill="#BBBBBB"/>
<path d="M57.75 0H22.8889C22.1985 0 21.6389 0.559625 21.6389 1.25C21.6389 1.94037 22.1985 2.5 22.8889 2.5H57.75C59.8178 2.5 61.5 4.18225 61.5 6.25V28.75C61.5 30.8177 59.8178 32.5 57.75 32.5H30.0417C29.3513 32.5 28.7917 33.0597 28.7917 33.75C28.7917 34.4403 29.3513 35 30.0417 35H57.75C61.1963 35 64 32.1963 64 28.75V6.25C64 2.80375 61.1963 0 57.75 0Z" fill="#E31E25"/>
<path d="M57.75 5H22.75C22.0596 5 21.5 5.55963 21.5 6.25V8.625C21.5 9.31537 22.0596 9.875 22.75 9.875C23.4404 9.875 24 9.31537 24 8.625V7.5H56.5V27.5H35.8094L41.1875 22.122L43.6994 24.634C44.1875 25.122 44.979 25.122 45.4673 24.634L51.0443 19.057C51.0706 19.724 51.6183 20.257 52.2918 20.257C52.9821 20.257 53.5418 19.6974 53.5418 19.007V15.9931C53.5418 15.3027 52.9821 14.7431 52.2918 14.7431H49.2779C48.5875 14.7431 48.0279 15.3027 48.0279 15.9931C48.0279 16.6835 48.5875 17.2431 49.2779 17.2431H49.3226L44.5835 21.9824L42.0716 19.4704C41.5835 18.9824 40.7921 18.9824 40.3037 19.4704L32.2738 27.5H25.4583C24.7679 27.5 24.2083 28.0596 24.2083 28.75C24.2083 29.4404 24.7679 30 25.4583 30H57.75C58.4404 30 59 29.4404 59 28.75V6.25C59 5.55963 58.4404 5 57.75 5Z" fill="#E31E25"/>
<path d="M31.516 12.1667H17.6789C18.647 10.9882 19.2291 9.481 19.2291 7.84037V6.8265C19.2291 3.06237 16.1669 0 12.4028 0C8.63875 0 5.57638 3.06238 5.57638 6.82638V7.84025C5.57638 9.481 6.1585 10.9881 7.12663 12.1666H6.84013C3.0685 12.1666 0 15.2353 0 19.007V32.0091C0 35.383 2.456 38.1922 5.67362 38.7479V62.75C5.67362 63.4403 6.23325 64 6.92362 64H18.9236C19.614 64 20.1736 63.4403 20.1736 62.75V50.6315C20.1736 49.9411 19.614 49.3815 18.9236 49.3815C18.2333 49.3815 17.6736 49.9412 17.6736 50.6315V61.5H14.1736V40.4132C14.1736 39.723 13.614 39.1632 12.9236 39.1632C12.2332 39.1632 11.6736 39.723 11.6736 40.4132V61.5H8.17362V34.9441C8.17587 34.9441 8.17813 34.9445 8.18038 34.9445H17.6669C17.6691 34.9445 17.6714 34.9441 17.6736 34.9441V40.9649C17.6736 41.6551 18.2333 42.2149 18.9236 42.2149C19.614 42.2149 20.1736 41.6551 20.1736 40.9649V20.257H37.1063C37.7966 20.257 38.3563 19.6974 38.3563 19.007C38.3563 15.2353 35.2878 12.1667 31.516 12.1667ZM8.07638 6.82638C8.07638 4.44075 10.0173 2.5 12.4028 2.5C14.7884 2.5 16.7291 4.44075 16.7291 6.82638V7.84025C16.7291 10.2259 14.7884 12.1666 12.4028 12.1666C10.0173 12.1666 8.07638 10.2259 8.07638 7.84025V6.82638ZM19.007 17.7569C18.9929 17.7569 18.9792 17.7585 18.9654 17.759C18.9514 17.7585 18.9377 17.7569 18.9237 17.7569C18.2334 17.7569 17.6737 18.3165 17.6737 19.0069V32.4448C17.6715 32.4448 17.6693 32.4444 17.667 32.4444H8.18038C8.17813 32.4444 8.17587 32.4448 8.17362 32.4448V19.007C8.17362 18.3166 7.614 17.757 6.92362 17.757C6.23325 17.757 5.67362 18.3166 5.67362 19.007V36.1888C3.84538 35.6777 2.5 33.9981 2.5 32.009V19.007C2.5 16.6138 4.447 14.6667 6.84025 14.6667H11.1528V17.5C11.1528 18.1904 11.7124 18.75 12.4028 18.75C13.0931 18.75 13.6528 18.1904 13.6528 17.5V14.6666H31.516C33.4748 14.6666 35.1348 15.9711 35.6729 17.7569H19.007Z" fill="#BBBBBB"/>
<path d="M19.8076 44.8313C19.5751 44.5988 19.2526 44.4651 18.9238 44.4651C18.5951 44.4651 18.2726 44.5988 18.0401 44.8313C17.8076 45.0638 17.6738 45.3863 17.6738 45.7151C17.6738 46.0438 17.8076 46.3663 18.0401 46.5988C18.2726 46.8312 18.5951 46.9651 18.9238 46.9651C19.2526 46.9651 19.5751 46.8313 19.8076 46.5988C20.0401 46.3663 20.1738 46.0438 20.1738 45.7151C20.1738 45.3863 20.0401 45.0638 19.8076 44.8313Z" fill="#BBBBBB"/>
</g>
<defs>
<clipPath id="clip0_37_76">
<rect width="64" height="64" fill="white"/>
</clipPath>
</defs>
</svg>
