<svg width="64" height="64" viewBox="0 0 64 64" fill="none" xmlns="http://www.w3.org/2000/svg">
<g clip-path="url(#clip0_37_67)">
<path d="M63.7393 27.2949L53.0274 13.3799C52.6309 12.8652 51.9078 12.7383 51.3595 13.0869L44.4434 17.4853H35.4234C35.3067 17.4853 35.1905 17.5102 35.0782 17.5429L28.0845 19.5561L20.8277 17.5713L13.7764 13.0869C13.2374 12.7441 12.5274 12.8603 12.1265 13.3574L0.278393 28.0332C-0.147389 28.5605 -0.0770761 29.3305 0.436596 29.7724L6.64656 35.1167L12.2178 42.6245C10.5885 44.3603 10.6202 47.0981 12.3155 48.7939C13.067 49.5449 14.0225 49.9692 15.0054 50.0679C14.9713 50.2905 14.9537 50.5166 14.9537 50.7461C14.9537 51.9307 15.4151 53.0444 16.2525 53.8818C17.0904 54.7197 18.2042 55.1811 19.3887 55.1811C19.4049 55.1811 19.4205 55.1802 19.4361 55.1797C19.4356 55.21 19.4342 55.2397 19.4342 55.27C19.4342 56.4546 19.8956 57.5684 20.733 58.4062C21.5709 59.2436 22.6846 59.7051 23.8692 59.7051C24.1031 59.7051 24.3345 59.686 24.5616 59.6509C24.6578 60.6372 25.0831 61.5972 25.837 62.3511C26.7012 63.2158 27.837 63.6479 28.9727 63.6479C30.1085 63.6479 31.2442 63.2158 32.109 62.3511L32.7872 61.6728L33.0719 61.9023C33.9293 62.7329 35.0426 63.1479 36.1558 63.1479C37.2916 63.1479 38.4273 62.7158 39.2916 61.8511C40.1739 60.9687 40.606 59.8042 40.588 58.6455C41.7462 58.6631 42.9112 58.2314 43.7935 57.3496C44.6749 56.4678 45.107 55.3042 45.0899 54.146C46.2965 54.165 47.441 53.7017 48.295 52.8476C49.1773 51.9653 49.6095 50.8008 49.5914 49.6421C50.7506 49.6597 51.9146 49.228 52.797 48.3457C54.3028 46.8398 54.4967 44.5122 53.38 42.7939L57.4478 34.2744L63.5636 29.0117C64.0689 28.5766 64.1461 27.8227 63.7393 27.2949ZM13.3751 15.8061L18.4454 19.0303L7.4156 32.4678L2.99568 28.6636L13.3751 15.8061ZM14.0904 44.2964L15.6207 42.7661C15.6671 42.7197 15.7159 42.6758 15.7657 42.6348C16.065 42.3906 16.4273 42.2451 16.8111 42.2104C16.8219 42.2095 16.8331 42.2095 16.8438 42.209C16.8985 42.2046 16.9532 42.2016 17.0084 42.2021C17.5328 42.2095 18.0201 42.4238 18.3814 42.8052C19.0904 43.5547 19.0523 44.7793 18.2965 45.5351L16.8126 47.019C16.0621 47.7695 14.8409 47.7695 14.0904 47.019C13.3399 46.2681 13.3399 45.0469 14.0904 44.2964ZM18.0274 52.1069C17.6636 51.7436 17.4635 51.2602 17.4635 50.7461C17.4635 50.2319 17.6636 49.7485 18.0274 49.3848L20.9947 46.4175C21.5631 45.8491 22.4566 45.6933 23.1832 46.0395C23.9322 46.3965 24.3536 47.2095 24.2437 48.0273C24.1851 48.4639 23.982 48.875 23.6705 49.187L20.7501 52.1069C20.3863 52.4707 19.9029 52.6709 19.3887 52.6709C18.8746 52.6709 18.3912 52.4707 18.0274 52.1069ZM22.5079 56.6309C22.1441 56.2676 21.9439 55.7842 21.9439 55.27C21.9439 54.7559 22.1441 54.2725 22.5079 53.9087L25.4747 50.9414C26.0826 50.334 27.0577 50.2031 27.8018 50.6362C28.4815 51.0317 28.8375 51.8081 28.7208 52.5815C28.6568 53.0068 28.4547 53.4067 28.1505 53.7109L25.2305 56.6309C24.8668 56.9946 24.3834 57.1948 23.8692 57.1948C23.3551 57.1948 22.8717 56.9946 22.5079 56.6309ZM27.6114 60.5762C26.8609 59.8257 26.8609 58.6045 27.6114 57.854L29.1417 56.3237C29.1881 56.2773 29.2364 56.2339 29.2862 56.1929C29.2877 56.1919 29.2887 56.1909 29.2896 56.1899C29.5387 55.9878 29.8311 55.8525 30.1431 55.7934C30.1505 55.7925 30.1578 55.7915 30.1651 55.7905C30.2188 55.7808 30.2735 55.7729 30.3282 55.7681C30.3502 55.7661 30.3721 55.7661 30.3946 55.7646C30.4395 55.7622 30.484 55.7593 30.5294 55.7598C31.0533 55.7671 31.5411 55.9809 31.9024 56.3628C31.9469 56.4097 31.9884 56.4585 32.0264 56.5088C32.6036 57.2632 32.526 58.3838 31.8096 59.1006L30.3336 60.5767C29.5831 61.3271 28.3619 61.3267 27.6114 60.5762ZM51.0221 46.5708C50.2716 47.3218 49.0504 47.3213 48.2999 46.5708C48.2725 46.5434 48.2437 46.5181 48.2144 46.4941L40.1451 38.3398C39.6573 37.8472 38.8629 37.8432 38.3702 38.331C37.8775 38.8183 37.8736 39.6128 38.3609 40.1055L46.5177 48.3472C46.5186 48.3481 46.5196 48.3491 46.5206 48.3501C47.2711 49.1006 47.2711 50.3223 46.5206 51.0727C46.1568 51.4365 45.6734 51.6367 45.1593 51.6367C44.6446 51.6367 44.1612 51.4365 43.7979 51.0727L38.3414 45.5596C37.8541 45.0669 37.0596 45.063 36.567 45.5503C36.0743 46.0381 36.0704 46.8325 36.5577 47.3252L41.9307 52.7539C41.9581 52.7881 41.9874 52.8208 42.0186 52.852C42.7691 53.6025 42.7691 54.8242 42.0186 55.5747C41.2677 56.3252 40.046 56.3247 39.2955 55.5742L36.3175 52.5649C35.8297 52.0723 35.0352 52.0679 34.5426 52.5557C34.0499 53.043 34.046 53.8374 34.5333 54.3301L37.4283 57.2549C37.4556 57.2891 37.4849 57.3223 37.5167 57.3535C38.2672 58.104 38.2672 59.3257 37.5167 60.0762C36.7662 60.8271 35.545 60.8267 34.7945 60.0762C34.7081 59.9897 34.6065 59.9233 34.5098 59.8491C34.4278 59.7866 34.4063 59.7432 34.4473 59.6435C34.4888 59.5425 34.5509 59.4512 34.5924 59.3496C34.6383 59.2363 34.6754 59.1196 34.7115 59.0024C34.9039 58.3823 34.9605 57.7153 34.8741 57.0718C34.7081 55.8369 34.0289 54.7226 32.9996 54.0176C32.4434 53.6372 31.7999 53.3877 31.1329 53.2939C31.4561 51.8682 31.0679 50.3223 30.0582 49.2554C29.2271 48.3774 28.1046 47.8848 26.897 47.8682C26.8531 47.8677 26.8092 47.8677 26.7647 47.8682C26.7916 46.7158 26.3726 45.5708 25.5782 44.7314C24.7467 43.8535 23.6241 43.3608 22.4171 43.3442C22.0582 43.3393 21.6959 43.3774 21.3463 43.458C21.1969 42.4184 20.6729 41.4565 19.8795 40.7685C19.0909 40.0859 18.0992 39.707 17.043 39.6924C15.9312 39.6763 14.8389 40.0864 14.0133 40.832L9.16218 34.2954L20.7677 20.1567L24.4664 21.1684L19.6358 29.6924C19.0518 30.7231 18.9044 31.9194 19.2203 33.061C19.5362 34.2031 20.2774 35.1533 21.3082 35.7373C21.3726 35.7739 21.4376 35.8086 21.5035 35.8418C21.5084 35.8442 21.5133 35.8467 21.5186 35.8491C21.692 35.9355 21.8702 36.0097 22.0509 36.0722C22.8922 36.3638 23.8009 36.3955 24.6773 36.1533C25.8189 35.8374 26.7691 35.0957 27.3531 34.0654L30.4923 28.5259L36.0972 28.9233L51.0225 43.8481C51.7725 44.5991 51.7725 45.8203 51.0221 46.5708ZM51.5421 40.8183L37.5406 26.8174C37.5142 26.7905 37.4864 26.7651 37.4576 26.7412C37.2559 26.5732 37.0059 26.4717 36.7423 26.4531L29.8795 25.9663C29.4049 25.9336 28.9332 26.186 28.6988 26.5996L25.1695 32.8281C24.9161 33.2754 24.5035 33.5972 24.0079 33.7344C23.5128 33.8716 22.9932 33.8071 22.5455 33.5537C22.0982 33.3003 21.7764 32.8877 21.6392 32.3921C21.502 31.8965 21.566 31.3769 21.8199 30.9297L26.5313 22.6147L28.4405 22.0654C28.4532 22.0615 28.4654 22.0566 28.4781 22.0527L35.6036 19.9951H44.213L54.961 33.6582L51.5421 40.8183ZM56.6051 31.6885L46.6656 19.0464L51.7384 15.8203L61.026 27.8843L56.6051 31.6885Z" fill="#BBBBBB"/>
<path d="M38.773 15.1289C39.0942 15.1289 39.4155 15.0063 39.6606 14.7612L48.2329 6.18897C48.7232 5.69873 48.7232 4.9043 48.2329 4.41406C47.7427 3.92383 46.9483 3.92383 46.458 4.41406L37.8857 12.9863C37.3955 13.4766 37.3955 14.271 37.8857 14.7612C38.1309 15.0063 38.4521 15.1289 38.773 15.1289Z" fill="#E31E25"/>
<path d="M24.3394 14.7612C24.5845 15.0063 24.9058 15.1289 25.2271 15.1289C25.5479 15.1289 25.8691 15.0063 26.1143 14.7612C26.6045 14.271 26.6045 13.4766 26.1143 12.9863L17.542 4.41406C17.0518 3.92383 16.2573 3.92383 15.7671 4.41406C15.2769 4.9043 15.2769 5.69873 15.7671 6.18897L24.3394 14.7612Z" fill="#E31E25"/>
<path d="M32 15.1289C32.6929 15.1289 33.2549 14.5669 33.2549 13.874V6.77979C33.2549 6.08691 32.6929 5.5249 32 5.5249C31.3071 5.5249 30.7451 6.08691 30.7451 6.77979V13.874C30.7451 14.5669 31.3071 15.1289 32 15.1289Z" fill="#E31E25"/>
<path d="M30.8418 2.23143C31.041 2.71434 31.5376 3.03124 32.0615 3.0039C32.5791 2.97704 33.0337 2.62743 33.1938 2.13476C33.3545 1.63817 33.1797 1.07225 32.7637 0.755848C32.3393 0.432606 31.7476 0.41454 31.3037 0.707997C30.8086 1.03515 30.6167 1.68651 30.8418 2.23143Z" fill="#E31E25"/>
</g>
<defs>
<clipPath id="clip0_37_67">
<rect width="64" height="64" fill="white"/>
</clipPath>
</defs>
</svg>
