<svg width="64" height="64" viewBox="0 0 64 64" fill="none" xmlns="http://www.w3.org/2000/svg">
<g clip-path="url(#clip0_37_95)">
<path d="M62.6666 61.3333H1.33337C0.597375 61.3333 0 61.9305 0 62.6665C0 63.4025 0.597375 63.9999 1.33337 63.9999H62.6668C63.4028 63.9999 64.0001 63.4025 64.0001 62.6665C64 61.9305 63.4026 61.3333 62.6666 61.3333Z" fill="#BBBBBB"/>
<path d="M12.0001 45.3333H4.00012C3.26412 45.3333 2.66675 45.9306 2.66675 46.6666V62.6666C2.66675 63.4025 3.26412 63.9999 4.00012 63.9999H12.0001C12.7361 63.9999 13.3335 63.4025 13.3335 62.6665V46.6665C13.3335 45.9305 12.7361 45.3333 12.0001 45.3333ZM10.6667 61.3333H5.3335V47.9999H10.6669V61.3333H10.6667Z" fill="#BBBBBB"/>
<path d="M28.0001 32H20.0001C19.2641 32 18.6667 32.5974 18.6667 33.3334V62.6668C18.6667 63.4028 19.2641 64.0001 20.0001 64.0001H28.0001C28.7361 64.0001 29.3335 63.4028 29.3335 62.6668V33.3334C29.3335 32.5974 28.7361 32 28.0001 32ZM26.6667 61.3334H21.3334V34.6666H26.6667V61.3334Z" fill="#BBBBBB"/>
<path d="M44.0001 37.3333H36.0001C35.2641 37.3333 34.6667 37.9306 34.6667 38.6666V62.6666C34.6667 63.4026 35.2641 64 36.0001 64H44.0001C44.7361 64 45.3335 63.4026 45.3335 62.6666V38.6666C45.3335 37.9305 44.7361 37.3333 44.0001 37.3333ZM42.6667 61.3333H37.3334V39.9999H42.6667V61.3333Z" fill="#BBBBBB"/>
<path d="M60.0001 21.3333H52.0001C51.2641 21.3333 50.6667 21.9306 50.6667 22.6666V62.6666C50.6667 63.4026 51.2641 64 52.0001 64H60.0001C60.7361 64 61.3335 63.4026 61.3335 62.6666V22.6666C61.3335 21.9305 60.7361 21.3333 60.0001 21.3333ZM58.6667 61.3333H53.3334V23.9999H58.6667V61.3333Z" fill="#BBBBBB"/>
<path d="M7.99988 24C5.0585 24 2.6665 26.392 2.6665 29.3334C2.6665 32.2748 5.0585 34.6668 7.99988 34.6668C10.9413 34.6668 13.3333 32.2748 13.3333 29.3334C13.3333 26.392 10.9413 24 7.99988 24ZM7.99988 32C6.52788 32 5.33325 30.8026 5.33325 29.3334C5.33325 27.864 6.52788 26.6667 7.99988 26.6667C9.47188 26.6667 10.6665 27.8641 10.6665 29.3334C10.6665 30.8026 9.47188 32 7.99988 32Z" fill="#E31E25"/>
<path d="M23.9999 10.6665C21.0585 10.6665 18.6665 13.0585 18.6665 15.9999C18.6665 18.9412 21.0585 21.3332 23.9999 21.3332C26.9413 21.3332 29.3333 18.9412 29.3333 15.9999C29.3333 13.0585 26.9413 10.6665 23.9999 10.6665ZM23.9999 18.6665C22.5279 18.6665 21.3333 17.4691 21.3333 15.9999C21.3333 14.5305 22.5279 13.3333 23.9999 13.3333C25.4719 13.3333 26.6665 14.5306 26.6665 15.9999C26.6665 17.4693 25.4719 18.6665 23.9999 18.6665Z" fill="#E31E25"/>
<path d="M39.9999 16C37.0585 16 34.6665 18.392 34.6665 21.3334C34.6665 24.2748 37.0585 26.6667 39.9999 26.6667C42.9413 26.6667 45.3333 24.2748 45.3333 21.3334C45.3333 18.392 42.9413 16 39.9999 16ZM39.9999 24C38.5279 24 37.3333 22.8026 37.3333 21.3334C37.3333 19.864 38.5279 18.6667 39.9999 18.6667C41.4719 18.6667 42.6665 19.8641 42.6665 21.3334C42.6665 22.8026 41.4719 24 39.9999 24Z" fill="#E31E25"/>
<path d="M55.9999 0C53.0585 0 50.6665 2.392 50.6665 5.33337C50.6665 8.27475 53.0585 10.6667 55.9999 10.6667C58.9413 10.6667 61.3333 8.27475 61.3333 5.33337C61.3333 2.392 58.9413 0 55.9999 0ZM55.9999 8C54.5279 8 53.3333 6.80262 53.3333 5.33337C53.3333 3.864 54.5279 2.66675 55.9999 2.66675C57.4719 2.66675 58.6665 3.86413 58.6665 5.33337C58.6665 6.80262 57.4719 8 55.9999 8Z" fill="#E31E25"/>
<path d="M54.1174 7.21617C53.5974 6.69617 52.752 6.69617 52.232 7.21617L41.8854 17.5628C41.3654 18.0828 41.3654 18.9282 41.8854 19.4482C42.1467 19.7068 42.488 19.8375 42.8294 19.8375C43.168 19.8375 43.5094 19.7095 43.7707 19.4482L54.1174 9.10155C54.6374 8.58155 54.6374 7.73617 54.1174 7.21617Z" fill="#E31E25"/>
<path d="M36.7759 18.256L28.2105 15.8134C27.4932 15.6054 26.7652 16.0214 26.5652 16.7308C26.3625 17.4402 26.7732 18.1762 27.4798 18.3788L36.0452 20.8214C36.1678 20.856 36.2905 20.872 36.4105 20.872C36.9919 20.872 37.5252 20.4907 37.6932 19.904C37.8959 19.1974 37.4853 18.4587 36.7759 18.256Z" fill="#E31E25"/>
<path d="M21.9201 17.6614C21.4615 17.0854 20.6241 16.992 20.0481 17.448L9.99474 25.464C9.41874 25.9254 9.32274 26.7626 9.78411 27.3386C10.0481 27.6693 10.4375 27.84 10.8267 27.84C11.1174 27.84 11.4107 27.744 11.6561 27.552L21.7095 19.536C22.2855 19.0746 22.3815 18.2374 21.9201 17.6614Z" fill="#E31E25"/>
</g>
<defs>
<clipPath id="clip0_37_95">
<rect width="64" height="64" fill="white"/>
</clipPath>
</defs>
</svg>
